<svg width="121" height="23" viewBox="0 0 121 23" version="1.1" xmlns="http://www.w3.org/2000/svg" xmlns:xlink="http://www.w3.org/1999/xlink">
<title> - noun</title>
<desc>Created using Figma</desc>
<g id="Canvas" transform="translate(-12470 -2403)">
<g id="Brio: /&#203;&#136;br&#196;&#147;&#197;&#141;/ - noun">
<use xlink:href="#path0_fill" transform="translate(12470.9 2403.51)" fill="#282828"/>
<use xlink:href="#path1_fill" transform="translate(12470.9 2403.51)" fill="#282828"/>
<use xlink:href="#path2_fill" transform="translate(12470.9 2403.51)" fill="#282828"/>
<use xlink:href="#path3_fill" transform="translate(12470.9 2403.51)" fill="#282828"/>
<use xlink:href="#path4_fill" transform="translate(12470.9 2403.51)" fill="#282828"/>
<use xlink:href="#path5_fill" transform="translate(12470.9 2403.51)" fill="#282828"/>
<use xlink:href="#path6_fill" transform="translate(12470.9 2403.51)" fill="#282828"/>
<use xlink:href="#path7_fill" transform="translate(12470.9 2403.51)" fill="#282828"/>
<use xlink:href="#path8_fill" transform="translate(12470.9 2403.51)" fill="#282828"/>
<use xlink:href="#path9_fill" transform="translate(12470.9 2403.51)" fill="#282828"/>
<use xlink:href="#path10_fill" transform="translate(12470.9 2403.51)" fill="#282828"/>
<use xlink:href="#path11_fill" transform="translate(12470.9 2403.51)" fill="#282828"/>
</g>
</g>
<defs>
<path id="path0_fill" d="M 0 17.4932L 0 1.66113L 2.37891 1.66113C 3.43848 1.66113 4.28271 1.74316 4.91162 1.90723C 5.54736 2.07129 6.08398 2.34814 6.52148 2.73779C 6.96582 3.14111 7.31787 3.64355 7.57764 4.24512C 7.84424 4.85352 7.97754 5.46875 7.97754 6.09082C 7.97754 7.22559 7.54346 8.18604 6.67529 8.97217C 7.51611 9.25928 8.1792 9.76172 8.66455 10.4795C 9.15674 11.1904 9.40283 12.0176 9.40283 12.9609C 9.40283 14.1982 8.96533 15.2441 8.09033 16.0986C 7.56396 16.625 6.97266 16.9907 6.31641 17.1958C 5.59863 17.394 4.69971 17.4932 3.61963 17.4932L 0 17.4932ZM 2.38916 8.45947L 3.1377 8.45947C 4.02637 8.45947 4.67578 8.26465 5.08594 7.875C 5.50293 7.47852 5.71143 6.89746 5.71143 6.13184C 5.71143 5.38672 5.49951 4.82275 5.07568 4.43994C 4.65186 4.05029 4.03662 3.85547 3.22998 3.85547L 2.38916 3.85547L 2.38916 8.45947ZM 2.38916 15.2476L 3.86572 15.2476C 4.9458 15.2476 5.73877 15.0356 6.24463 14.6118C 6.77783 14.1538 7.04443 13.5728 7.04443 12.8687C 7.04443 12.1851 6.78809 11.6108 6.27539 11.146C 5.77637 10.688 4.88428 10.459 3.59912 10.459L 2.38916 10.459L 2.38916 15.2476Z"/>
<path id="path1_fill" d="M 11.9868 7.50586L 14.2939 7.50586L 14.2939 8.39795C 14.7178 7.95361 15.0938 7.64941 15.4219 7.48535C 15.7568 7.31445 16.1533 7.229 16.6113 7.229C 17.2197 7.229 17.8555 7.42725 18.5186 7.82373L 17.4624 9.93604C 17.0249 9.62158 16.5977 9.46436 16.1807 9.46436C 14.9229 9.46436 14.2939 10.4146 14.2939 12.3149L 14.2939 17.4932L 11.9868 17.4932L 11.9868 7.50586Z"/>
<path id="path2_fill" d="M 22.4766 7.50586L 22.4766 17.4932L 20.1694 17.4932L 20.1694 7.50586L 22.4766 7.50586ZM 19.8208 3.35303C 19.8208 2.94971 19.9678 2.60107 20.2617 2.30713C 20.5557 2.01318 20.9077 1.86621 21.3179 1.86621C 21.7349 1.86621 22.0903 2.01318 22.3843 2.30713C 22.6782 2.59424 22.8252 2.94629 22.8252 3.36328C 22.8252 3.78027 22.6782 4.13574 22.3843 4.42969C 22.0972 4.72363 21.7451 4.87061 21.3281 4.87061C 20.9111 4.87061 20.5557 4.72363 20.2617 4.42969C 19.9678 4.13574 19.8208 3.77686 19.8208 3.35303Z"/>
<path id="path3_fill" d="M 24.9272 12.4277C 24.9272 10.9854 25.4434 9.7583 26.4756 8.74658C 27.5078 7.73486 28.7656 7.229 30.249 7.229C 31.7393 7.229 33.0039 7.73828 34.043 8.75684C 35.0684 9.77539 35.5811 11.0264 35.5811 12.5098C 35.5811 14.0068 35.0649 15.2612 34.0327 16.2729C 32.9937 17.2778 31.7188 17.7803 30.208 17.7803C 28.7109 17.7803 27.4565 17.2676 26.4448 16.2422C 25.4331 15.2305 24.9272 13.959 24.9272 12.4277ZM 27.2856 12.4688C 27.2856 13.4668 27.5522 14.2563 28.0854 14.8374C 28.6323 15.4253 29.3535 15.7192 30.249 15.7192C 31.1514 15.7192 31.8726 15.4287 32.4126 14.8477C 32.9526 14.2666 33.2227 13.4907 33.2227 12.52C 33.2227 11.5493 32.9526 10.7734 32.4126 10.1924C 31.8657 9.60449 31.1445 9.31055 30.249 9.31055C 29.3672 9.31055 28.6528 9.60449 28.106 10.1924C 27.5591 10.7803 27.2856 11.5391 27.2856 12.4688Z"/>
<path id="path4_fill" d="M 38.3906 16.3447C 38.3906 15.9619 38.5308 15.6304 38.811 15.3501C 39.0913 15.0698 39.4263 14.9297 39.8159 14.9297C 40.2056 14.9297 40.5405 15.0698 40.8208 15.3501C 41.1011 15.6304 41.2412 15.9653 41.2412 16.355C 41.2412 16.7515 41.1011 17.0898 40.8208 17.3701C 40.5474 17.6436 40.2124 17.7803 39.8159 17.7803C 39.4126 17.7803 39.0742 17.6436 38.8008 17.3701C 38.5273 17.0967 38.3906 16.7549 38.3906 16.3447ZM 38.3906 8.63379C 38.3906 8.25781 38.5308 7.92969 38.811 7.64941C 39.0913 7.36914 39.4263 7.229 39.8159 7.229C 40.2056 7.229 40.5405 7.36914 40.8208 7.64941C 41.1011 7.92969 41.2412 8.26465 41.2412 8.6543C 41.2412 9.05078 41.1011 9.38916 40.8208 9.66943C 40.5474 9.94287 40.2124 10.0796 39.8159 10.0796C 39.4194 10.0796 39.0811 9.93945 38.8008 9.65918C 38.5273 9.38574 38.3906 9.04395 38.3906 8.63379Z"/>
<path id="path5_fill" d="M 58.437 0L 60.3442 0.84082L 51.2798 21.8203L 49.3931 20.9692L 58.437 0Z"/>
<path id="path6_fill" d="M 61.4414 7.37256L 61.4414 1.30225L 63.4614 1.30225L 63.4614 7.37256L 61.4414 7.37256Z"/>
<path id="path7_fill" d="M 68.25 0.174316L 68.25 8.66455C 69.1729 7.70752 70.2188 7.229 71.3877 7.229C 72.7344 7.229 73.8555 7.73145 74.751 8.73633C 75.6465 9.73438 76.0942 10.9785 76.0942 12.4688C 76.0942 14.0068 75.6431 15.2783 74.7407 16.2832C 73.8452 17.2812 72.7139 17.7803 71.3467 17.7803C 70.1914 17.7803 69.1592 17.3359 68.25 16.4473L 68.25 17.4932L 65.9429 17.4932L 65.9429 0.174316L 68.25 0.174316ZM 73.7358 12.5713C 73.7358 11.6143 73.4761 10.835 72.9565 10.2334C 72.4302 9.61816 71.7705 9.31055 70.9775 9.31055C 70.1299 9.31055 69.4395 9.60791 68.9062 10.2026C 68.3799 10.7905 68.1167 11.5562 68.1167 12.4995C 68.1167 13.4702 68.3765 14.2461 68.896 14.8271C 69.4155 15.4219 70.0991 15.7192 70.9468 15.7192C 71.7466 15.7192 72.4097 15.4219 72.936 14.8271C 73.4692 14.2256 73.7358 13.4736 73.7358 12.5713Z"/>
<path id="path8_fill" d="M 78.5347 7.50586L 80.8418 7.50586L 80.8418 8.39795C 81.2656 7.95361 81.6416 7.64941 81.9697 7.48535C 82.3047 7.31445 82.7012 7.229 83.1592 7.229C 83.7676 7.229 84.4033 7.42725 85.0664 7.82373L 84.0103 9.93604C 83.5728 9.62158 83.1455 9.46436 82.7285 9.46436C 81.4707 9.46436 80.8418 10.4146 80.8418 12.3149L 80.8418 17.4932L 78.5347 17.4932L 78.5347 7.50586Z"/>
<path id="path9_fill" d="M 95.4844 13.043L 88.3271 13.043C 88.3887 13.8633 88.6553 14.5161 89.127 15.0015C 89.5986 15.48 90.2036 15.7192 90.9419 15.7192C 91.5161 15.7192 91.9912 15.5825 92.3672 15.3091C 92.7363 15.0356 93.1567 14.5298 93.6284 13.7915L 95.5767 14.8784C 95.2759 15.3911 94.958 15.832 94.623 16.2012C 94.2881 16.5635 93.9292 16.8643 93.5464 17.1035C 93.1636 17.3359 92.75 17.5068 92.3057 17.6162C 91.8613 17.7256 91.3794 17.7803 90.8599 17.7803C 89.3696 17.7803 88.1733 17.3018 87.271 16.3447C 86.3687 15.3809 85.9175 14.1025 85.9175 12.5098C 85.9175 10.9307 86.355 9.65234 87.23 8.6748C 88.1118 7.71094 89.2808 7.229 90.7368 7.229C 92.2065 7.229 93.3687 7.69727 94.2231 8.63379C 95.0708 9.56348 95.4946 10.8521 95.4946 12.4995L 95.4844 13.043ZM 93.1157 11.1562C 92.7944 9.92578 92.0186 9.31055 90.7881 9.31055C 90.5078 9.31055 90.2446 9.35498 89.9985 9.44385C 89.7524 9.52588 89.5269 9.64893 89.3218 9.81299C 89.1235 9.97021 88.9526 10.1616 88.8091 10.3872C 88.6655 10.6128 88.5562 10.8691 88.481 11.1562L 93.1157 11.1562ZM 87.189 3.72217L 94.377 3.72217L 94.377 5.56787L 87.189 5.56787L 87.189 3.72217Z"/>
<path id="path10_fill" d="M 97.5454 12.4277C 97.5454 10.9854 98.0615 9.7583 99.0938 8.74658C 100.126 7.73486 101.384 7.229 102.867 7.229C 104.357 7.229 105.622 7.73828 106.661 8.75684C 107.687 9.77539 108.199 11.0264 108.199 12.5098C 108.199 14.0068 107.683 15.2612 106.651 16.2729C 105.612 17.2778 104.337 17.7803 102.826 17.7803C 101.329 17.7803 100.075 17.2676 99.063 16.2422C 98.0513 15.2305 97.5454 13.959 97.5454 12.4277ZM 99.9038 12.4688C 99.9038 13.4668 100.17 14.2563 100.704 14.8374C 101.25 15.4253 101.972 15.7192 102.867 15.7192C 103.77 15.7192 104.491 15.4287 105.031 14.8477C 105.571 14.2666 105.841 13.4907 105.841 12.52C 105.841 11.5493 105.571 10.7734 105.031 10.1924C 104.484 9.60449 103.763 9.31055 102.867 9.31055C 101.985 9.31055 101.271 9.60449 100.724 10.1924C 100.177 10.7803 99.9038 11.5391 99.9038 12.4688ZM 99.3091 3.72217L 106.497 3.72217L 106.497 5.56787L 99.3091 5.56787L 99.3091 3.72217Z"/>
<path id="path11_fill" d="M 118.094 0L 120.001 0.84082L 110.937 21.8203L 109.05 20.9692L 118.094 0Z"/>
</defs>
</svg>
