<?xml version="1.0" encoding="utf-8"?>
<!-- Generator: Adobe Illustrator 22.0.1, SVG Export Plug-In . SVG Version: 6.00 Build 0)  -->
<svg version="1.1" id="Layer_1" xmlns="http://www.w3.org/2000/svg" xmlns:xlink="http://www.w3.org/1999/xlink" x="0px" y="0px"
	 viewBox="0 0 276 156" style="enable-background:new 0 0 276 156;" xml:space="preserve">
<style type="text/css">
	.st0{fill:none;stroke:#000000;stroke-width:5;stroke-miterlimit:10;}
	.st1{fill:none;stroke:#D88812;stroke-width:4;stroke-miterlimit:10;}
	.st2{fill:#562C34;}
	.st3{font-family:'LaoMN';}
	.st4{font-size:21px;}
	.st5{letter-spacing:3px;}
</style>
<path class="st0" d="M18,74.9c14.9,0,27,8,27,17.9s-12.1,17.9-27,17.9"/>
<path class="st0" d="M18,39.7c14.9,0,27,8,27,17.9s-12.1,18-27,18"/>
<g>
	<line class="st0" x1="20.5" y1="39" x2="20.5" y2="111.5"/>
</g>
<path class="st0" d="M73,39.7c15.2,0,27.5,8,27.5,17.9s-12.3,18-27.5,18"/>
<g>
	<line class="st0" x1="75" y1="40" x2="75" y2="112.5"/>
</g>
<line class="st0" x1="76" y1="75.6" x2="101" y2="111.5"/>
<g>
	<line class="st0" x1="130" y1="40.5" x2="130" y2="113"/>
</g>
<ellipse class="st0" cx="196.2" cy="76.7" rx="36.2" ry="36.3"/>
<line class="st1" x1="196.5" y1="29" x2="196.5" y2="9"/>
<line class="st1" x1="239.5" y1="133.5" x2="227.7" y2="117.3"/>
<line class="st1" x1="244.9" y1="94" x2="263.5" y2="100.5"/>
<line class="st1" x1="245.1" y1="60.4" x2="264.5" y2="52.5"/>
<line class="st1" x1="225.2" y1="35.3" x2="237.5" y2="20.5"/>
<line class="st1" x1="195" y1="144" x2="195" y2="124"/>
<line class="st1" x1="164.8" y1="34.7" x2="154" y2="18.5"/>
<text transform="matrix(0.9686 0 0 1 45 142)" class="st2 st3 st4 st5">c o f f e e</text>
</svg>
